<?xml version="1.0" encoding="UTF-8"?>
<svg id="katman_2" data-name="katman 2" xmlns="http://www.w3.org/2000/svg" viewBox="0 0 40.58 44.68">
  <defs>
    <style>
      .cls-1 {
        fill: #a0a1a0;
      }

      .cls-2 {
        fill: #b5b5b5;
      }
    </style>
  </defs>
  <g id="kare">
    <g>
      <g>
        <polygon class="cls-1" points=".25 44.43 37.44 44.43 .25 3.58 .25 44.43"/>
        <path class="cls-1" d="M37.72,44.56H.12V3.26l37.6,41.3ZM.38,44.31h36.78L.38,3.9v40.4Z"/>
      </g>
      <g>
        <path class="cls-1" d="M37.72,44.56H.12V3.26l37.6,41.3ZM.38,44.31h36.78L.38,3.9v40.4Z"/>
        <path class="cls-1" d="M38.01,44.68H0V2.93l38.01,41.75ZM.25,44.43h37.19H.25ZM.5,44.18h36.38L.5,4.22v39.96Z"/>
      </g>
    </g>
    <g>
      <g>
        <polygon class="cls-2" points="40.34 .86 40.34 40.09 3.74 .26 40.34 .86"/>
        <path class="cls-2" d="M40.46,40.41l-.22-.24L3.45.13h.29s36.72.6,36.72.6v39.68ZM4.03.39l36.18,39.38V.98L4.03.39Z"/>
      </g>
      <g>
        <path class="cls-2" d="M40.46,40.41l-.22-.24L3.45.13h.29s36.72.6,36.72.6v39.68ZM4.03.39l36.18,39.38V.98L4.03.39Z"/>
        <path class="cls-2" d="M40.58,40.73l-.43-.47L3.16,0h.58s36.84.61,36.84.61v40.12ZM11.2,8.38l29.13,31.71V.86L3.74.26h.29s36.3.6,36.3.6v39.23L11.2,8.38ZM4.32.52l35.77,38.93V1.1L4.32.52Z"/>
      </g>
    </g>
  </g>
</svg>