<svg width="28" height="28" viewBox="0 0 180 164" fill="none" xmlns="http://www.w3.org/2000/svg">
<path d="M39.3568 163.5H86.6268L178.181 70.0529C179.176 68.0541 180.57 63.1568 178.181 59.5589C175.793 55.9609 140.697 20.7475 123.448 3.59049C121.789 1.25847 116.979 -2.00635 111.008 3.59049C105.037 9.18733 35.8738 78.5481 2.03848 112.529C0.87746 114.861 -0.747963 120.524 2.03848 124.522C4.82491 128.52 28.0784 152.173 39.3568 163.5Z" stroke="white" stroke-width="40" stroke-linejoin="round" stroke-linecap="round" fill="none"/>
<path d="M107.028 131.518L50.3036 75.0501C37.3665 88.2094 11.0944 115.028 9.50215 117.026C7.9099 119.025 8.83871 121.191 9.50215 122.024L42.8399 155.005H83.1437L107.028 131.518Z" stroke="white" stroke-width="40" stroke-linejoin="round" stroke-linecap="round" fill="none"/>
<path d="M39.3568 163.5H86.6268L178.181 70.0529C179.176 68.0541 180.57 63.1568 178.181 59.5589C175.793 55.9609 140.697 20.7475 123.448 3.59049C121.789 1.25847 116.979 -2.00635 111.008 3.59049C105.037 9.18733 35.8738 78.5481 2.03848 112.529C0.87746 114.861 -0.747963 120.524 2.03848 124.522C4.82491 128.52 28.0784 152.173 39.3568 163.5Z" fill="#222"/>
<path d="M107.028 131.518L50.3036 75.0501C37.3665 88.2094 11.0944 115.028 9.50215 117.026C7.9099 119.025 8.83871 121.191 9.50215 122.024L42.8399 155.005H83.1437L107.028 131.518Z" fill="#555"/>
</svg>
