<svg width="28" height="28" viewBox="0 0 172 184" fill="none" xmlns="http://www.w3.org/2000/svg">
<path d="M99.0167 181.376C90.7633 184.508 57.5167 181.376 57.5167 181.376C37.0642 173.18 31.0073 163.681 25.0167 142.376C23.7337 127.878 23.7657 119.979 20.5167 104.876L0.516747 54.3765C2.47802 43.102 6.00282 41.1484 16.0167 44.3765L39.5167 90.8765C42.3125 92.3127 43.4437 92.1743 44.5167 89.8765L33.0167 20.8765C39.0514 11.607 43.3451 10.9613 52.5167 17.3765L67.0167 80.8765C69.5206 83.2442 70.7101 83.1474 72.5167 80.8765V8.37653C79.5776 -0.307672 87.1052 -4.18399 94.0167 9.37652L95.0167 80.8765C97.1645 83.9075 98.3688 83.8742 100.517 80.8765L114.017 23.3765C112.252 19.2414 131.482 9.22638 134.517 25.3765L119.517 113.377L121.517 115.877H126.517L147.017 95.3765C147.149 93.4671 166.016 86.1191 170.517 99.3765L117.517 169.376C111.172 175.392 107.27 178.245 99.0167 181.376Z" stroke="white" stroke-width="8" stroke-linejoin="round" stroke-linecap="round" fill="none"/>
<path d="M99.0167 181.376C90.7633 184.508 57.5167 181.376 57.5167 181.376C37.0642 173.18 31.0073 163.681 25.0167 142.376C23.7337 127.878 23.7657 119.979 20.5167 104.876L0.516747 54.3765C2.47802 43.102 6.00282 41.1484 16.0167 44.3765L39.5167 90.8765C42.3125 92.3127 43.4437 92.1743 44.5167 89.8765L33.0167 20.8765C39.0514 11.607 43.3451 10.9613 52.5167 17.3765L67.0167 80.8765C69.5206 83.2442 70.7101 83.1474 72.5167 80.8765V8.37653C79.5776 -0.307672 87.1052 -4.18399 94.0167 9.37652L95.0167 80.8765C97.1645 83.9075 98.3688 83.8742 100.517 80.8765L114.017 23.3765C112.252 19.2414 131.482 9.22638 134.517 25.3765L119.517 113.377L121.517 115.877H126.517L147.017 95.3765C147.149 93.4671 166.016 86.1191 170.517 99.3765L117.517 169.376C111.172 175.392 107.27 178.245 99.0167 181.376Z" fill="#141414" stroke="#333" stroke-width="1.5"/>
</svg>
